<svg width="24" height="15" viewBox="0 0 24 15" fill="none" xmlns="http://www.w3.org/2000/svg">
<path id="Vector" d="M1.2 2.5H22.8C23.1183 2.5 23.4235 2.3683 23.6485 2.13388C23.8736 1.89946 24 1.58152 24 1.25C24 0.918479 23.8736 0.600537 23.6485 0.366117C23.4235 0.131696 23.1183 0 22.8 0H1.2C0.88174 0 0.576515 0.131696 0.351472 0.366117C0.126428 0.600537 0 0.918479 0 1.25C0 1.58152 0.126428 1.89946 0.351472 2.13388C0.576515 2.3683 0.88174 2.5 1.2 2.5ZM22.8 12.5H1.2C0.88174 12.5 0.576515 12.6317 0.351472 12.8661C0.126428 13.1005 0 13.4185 0 13.75C0 14.0815 0.126428 14.3995 0.351472 14.6339C0.576515 14.8683 0.88174 15 1.2 15H22.8C23.1183 15 23.4235 14.8683 23.6485 14.6339C23.8736 14.3995 24 14.0815 24 13.75C24 13.4185 23.8736 13.1005 23.6485 12.8661C23.4235 12.6317 23.1183 12.5 22.8 12.5ZM22.8 6.25H1.2C0.88174 6.25 0.576515 6.3817 0.351472 6.61612C0.126428 6.85054 0 7.16848 0 7.5C0 7.83152 0.126428 8.14946 0.351472 8.38388C0.576515 8.6183 0.88174 8.75 1.2 8.75H22.8C23.1183 8.75 23.4235 8.6183 23.6485 8.38388C23.8736 8.14946 24 7.83152 24 7.5C24 7.16848 23.8736 6.85054 23.6485 6.61612C23.4235 6.3817 23.1183 6.25 22.8 6.25Z" fill="white"/>
</svg>
